# This file uses centimeters as units for non-parametric coordinates.

v 0.000000 2.500000 0.250000
v 0.000000 0.000000 0.250000
v -1.000000 2.500000 0.250000
v -1.000000 0.000000 0.250000
v -3.000000 0.000000 0.250000
v -4.000000 0.000000 0.250000
v -3.000000 2.500000 0.250000
v -4.000000 2.500000 0.250000
v 0.000000 3.000000 0.250000
v -1.000000 3.000000 0.250000
v -3.000000 3.000000 0.250000
v -4.000000 3.000000 0.250000
v 0.000000 2.500000 0.000000
v -1.000000 2.500000 0.000000
v 0.000000 0.000000 0.000000
v -1.000000 0.000000 0.000000
v -3.000000 0.000000 0.000000
v -3.000000 2.500000 0.000000
v -4.000000 0.000000 0.000000
v -4.000000 2.500000 0.000000
v 0.000000 3.000000 0.000000
v -1.000000 3.000000 0.000000
v -3.000000 3.000000 0.000000
v -4.000000 3.000000 0.000000
v 3.000000 0.000000 0.250000
v 3.000000 3.000000 0.250000
v 3.000000 0.000000 0.000000
v 3.000000 3.000000 0.000000
v -7.000000 3.000000 0.250000
v -7.000000 3.000000 0.000000
v -7.000000 0.000000 0.000000
v -7.000000 0.000000 0.250000
v -7.000000 2.500000 0.250000
v -7.000000 2.500000 0.000000
v 3.000000 2.500000 0.250000
v 3.000000 2.500000 0.000000
vt 0.795890 0.250996
vt 0.770990 0.250996
vt 0.770990 0.001992
vt 0.795890 0.001992
vt 0.827785 0.250996
vt 0.802884 0.250996
vt 0.802884 0.001992
vt 0.827785 0.001992
vt 0.700208 0.250996
vt 0.675308 0.250996
vt 0.675308 0.001992
vt 0.700208 0.001992
vt 0.700208 0.300797
vt 0.675308 0.300797
vt 0.763996 0.250996
vt 0.739096 0.250996
vt 0.739096 0.001992
vt 0.763996 0.001992
vt 0.763996 0.300797
vt 0.739096 0.300797
vt 0.859679 0.001992
vt 0.859679 0.250996
vt 0.834778 0.250996
vt 0.834778 0.001992
vt 0.866672 0.201195
vt 0.866672 0.001992
vt 0.891573 0.001992
vt 0.891573 0.201195
vt 0.882441 0.204824
vt 0.907341 0.204824
vt 0.907341 0.304426
vt 0.882441 0.304426
vt 0.636420 0.001992
vt 0.636420 0.300797
vt 0.611520 0.300797
vt 0.611520 0.001992
vt 0.636420 0.400398
vt 0.611520 0.400398
vt 0.611520 0.599602
vt 0.636420 0.599602
vt 0.636420 0.699203
vt 0.611520 0.699203
vt 0.636420 0.998008
vt 0.611520 0.998008
vt 0.668314 0.001992
vt 0.668314 0.300797
vt 0.643414 0.300797
vt 0.643414 0.001992
vt 0.668314 0.400398
vt 0.643414 0.400398
vt 0.732102 0.001992
vt 0.732102 0.300797
vt 0.707202 0.300797
vt 0.707202 0.001992
vt 0.250815 0.400398
vt 0.001811 0.400398
vt 0.001811 0.300797
vt 0.250815 0.300797
vt 0.250815 0.001992
vt 0.001811 0.001992
vt 0.300616 0.300797
vt 0.300616 0.400398
vt 0.300616 0.001992
vt 0.300616 0.599602
vt 0.250815 0.599602
vt 0.300616 0.699203
vt 0.250815 0.699203
vt 0.300616 0.998008
vt 0.250815 0.998008
vt 0.001811 0.699203
vt 0.001811 0.599602
vt 0.001811 0.998008
vt 0.605559 0.300797
vt 0.605559 0.400398
vt 0.356555 0.400398
vt 0.356555 0.300797
vt 0.306754 0.400398
vt 0.306754 0.300797
vt 0.356555 0.001992
vt 0.605559 0.001992
vt 0.356555 0.599602
vt 0.306754 0.599602
vt 0.306754 0.001992
vt 0.356555 0.699203
vt 0.306754 0.699203
vt 0.356555 0.998008
vt 0.306754 0.998008
vt 0.605559 0.699203
vt 0.605559 0.599602
vt 0.605559 0.998008
vn 0.000000 0.000000 1.000000
vn 0.000000 0.000000 1.000000
vn 0.000000 0.000000 1.000000
vn 0.000000 0.000000 1.000000
vn 0.000000 0.000000 1.000000
vn 0.000000 0.000000 1.000000
vn 0.000000 0.000000 1.000000
vn 0.000000 0.000000 1.000000
vn 0.000000 0.000000 1.000000
vn 0.000000 0.000000 1.000000
vn 0.000000 0.000000 1.000000
vn 0.000000 0.000000 1.000000
vn 0.000000 0.000000 -1.000000
vn 0.000000 0.000000 -1.000000
vn 0.000000 0.000000 -1.000000
vn 0.000000 0.000000 -1.000000
vn 0.000000 0.000000 -1.000000
vn 0.000000 0.000000 -1.000000
vn 0.000000 0.000000 -1.000000
vn 0.000000 0.000000 -1.000000
vn 0.000000 0.000000 -1.000000
vn 0.000000 0.000000 -1.000000
vn 0.000000 0.000000 -1.000000
vn 0.000000 0.000000 -1.000000
vn 0.000000 -1.000000 0.000000
vn 0.000000 -1.000000 0.000000
vn 0.000000 -1.000000 0.000000
vn 0.000000 -1.000000 0.000000
vn 1.000000 0.000000 0.000000
vn 1.000000 0.000000 0.000000
vn 1.000000 0.000000 0.000000
vn 1.000000 0.000000 0.000000
vn -1.000000 0.000000 0.000000
vn -1.000000 0.000000 0.000000
vn -1.000000 0.000000 0.000000
vn -1.000000 0.000000 0.000000
vn 0.000000 0.000000 1.000000
vn 0.000000 0.000000 1.000000
vn 0.000000 0.000000 1.000000
vn 0.000000 0.000000 1.000000
vn 0.000000 -1.000000 0.000000
vn 0.000000 -1.000000 0.000000
vn 0.000000 -1.000000 0.000000
vn 0.000000 -1.000000 0.000000
vn 0.000000 0.000000 -1.000000
vn 0.000000 0.000000 -1.000000
vn 0.000000 0.000000 -1.000000
vn 0.000000 0.000000 -1.000000
vn 1.000000 0.000000 0.000000
vn 1.000000 0.000000 0.000000
vn 1.000000 0.000000 0.000000
vn 1.000000 0.000000 0.000000
vn -0.000000 1.000000 -0.000000
vn -0.000000 1.000000 -0.000000
vn -0.000000 1.000000 -0.000000
vn -0.000000 1.000000 -0.000000
vn 0.000000 -1.000000 0.000000
vn 0.000000 -1.000000 0.000000
vn 0.000000 -1.000000 0.000000
vn 0.000000 -1.000000 0.000000
vn -0.000000 1.000000 -0.000000
vn -0.000000 1.000000 -0.000000
vn -0.000000 1.000000 -0.000000
vn -0.000000 1.000000 -0.000000
vn 0.000000 -1.000000 0.000000
vn 0.000000 -1.000000 0.000000
vn 0.000000 -1.000000 0.000000
vn 0.000000 -1.000000 0.000000
vn 0.000000 0.000000 1.000000
vn 0.000000 0.000000 1.000000
vn 0.000000 0.000000 1.000000
vn 0.000000 0.000000 1.000000
vn 0.000000 0.000000 1.000000
vn 0.000000 0.000000 1.000000
vn 0.000000 0.000000 1.000000
vn 0.000000 0.000000 1.000000
vn -1.000000 0.000000 0.000000
vn -1.000000 0.000000 0.000000
vn -1.000000 0.000000 0.000000
vn -1.000000 0.000000 0.000000
vn -1.000000 0.000000 0.000000
vn -1.000000 0.000000 0.000000
vn -1.000000 0.000000 0.000000
vn -1.000000 0.000000 0.000000
vn 0.000000 0.000000 -1.000000
vn 0.000000 0.000000 -1.000000
vn 0.000000 0.000000 -1.000000
vn 0.000000 0.000000 -1.000000
vn 0.000000 0.000000 -1.000000
vn 0.000000 0.000000 -1.000000
vn 0.000000 0.000000 -1.000000
vn 0.000000 0.000000 -1.000000
vn 1.000000 0.000000 0.000000
vn 1.000000 0.000000 0.000000
vn 1.000000 0.000000 0.000000
vn 1.000000 0.000000 0.000000
vn 0.000000 -1.000000 0.000000
vn 0.000000 -1.000000 0.000000
vn 0.000000 -1.000000 0.000000
vn 0.000000 -1.000000 0.000000
vn 1.000000 0.000000 0.000000
vn 1.000000 0.000000 0.000000
vn 1.000000 0.000000 0.000000
vn 1.000000 0.000000 0.000000
vn 0.000000 0.000000 -1.000000
vn 0.000000 0.000000 -1.000000
vn 0.000000 0.000000 -1.000000
vn 0.000000 0.000000 -1.000000
vn 0.000000 0.000000 1.000000
vn 0.000000 0.000000 1.000000
vn 0.000000 0.000000 1.000000
vn 0.000000 0.000000 1.000000
vn 0.000000 0.000000 -1.000000
vn 0.000000 0.000000 -1.000000
vn 0.000000 0.000000 -1.000000
vn 0.000000 0.000000 -1.000000
vn 0.000000 0.000000 -1.000000
vn 0.000000 0.000000 -1.000000
vn 0.000000 0.000000 -1.000000
vn 0.000000 0.000000 -1.000000
vn 0.000000 0.000000 1.000000
vn 0.000000 0.000000 1.000000
vn 0.000000 0.000000 1.000000
vn 0.000000 0.000000 1.000000
vn 0.000000 0.000000 1.000000
vn 0.000000 0.000000 1.000000
vn 0.000000 0.000000 1.000000
vn 0.000000 0.000000 1.000000
vn -0.000000 1.000000 -0.000000
vn -0.000000 1.000000 -0.000000
vn -0.000000 1.000000 -0.000000
vn -0.000000 1.000000 -0.000000
vn -0.000000 1.000000 -0.000000
vn -0.000000 1.000000 -0.000000
vn -0.000000 1.000000 -0.000000
vn -0.000000 1.000000 -0.000000
vn -0.000000 1.000000 -0.000000
vn -0.000000 1.000000 -0.000000
vn -0.000000 1.000000 -0.000000
vn -0.000000 1.000000 -0.000000
g Door:Mesh
f 3/55/1 4/56/2 2/57/3 1/58/4
f 7/65/5 8/67/6 6/70/7 5/71/8
f 10/62/9 11/64/10 7/65/11 3/55/12
f 15/73/13 16/74/14 14/75/15 13/76/16
f 19/88/17 20/84/18 18/81/19 17/89/20
f 18/81/21 23/82/22 22/77/23 14/75/24
f 18/25/25 14/26/26 3/27/27 7/28/28
f 18/1/29 7/2/30 5/3/31 17/4/32
f 3/5/33 14/6/34 16/7/35 4/8/36
f 35/59/37 1/58/38 2/57/39 25/60/40
f 17/29/41 5/30/42 6/31/43 19/32/44
f 13/76/45 36/79/46 27/80/47 15/73/48
f 36/9/49 35/10/50 25/11/51 27/12/52
f 28/33/53 21/34/54 9/35/55 26/36/56
f 25/45/57 2/46/58 15/47/59 27/48/60
f 24/41/61 30/43/62 29/44/63 12/42/64
f 6/51/65 32/52/66 31/53/67 19/54/68
f 8/67/69 33/69/70 32/72/71 6/70/72
f 12/66/73 29/68/74 33/69/75 8/67/76
f 33/15/77 34/16/78 31/17/79 32/18/80
f 29/19/81 30/20/82 34/16/83 33/15/84
f 31/90/85 34/86/86 20/84/87 19/88/88
f 34/86/89 30/87/90 24/85/91 20/84/92
f 19/21/93 20/22/94 8/23/95 6/24/96
f 4/49/97 16/50/98 15/47/99 2/46/100
f 28/13/101 26/14/102 35/10/103 36/9/104
f 21/78/105 28/83/106 36/79/107 13/76/108
f 26/63/109 9/61/110 1/58/111 35/59/112
f 13/76/113 14/75/114 22/77/115 21/78/116
f 20/84/117 24/85/118 23/82/119 18/81/120
f 7/65/121 11/64/122 12/66/123 8/67/124
f 3/55/125 1/58/126 9/61/127 10/62/128
f 9/35/129 21/34/130 22/37/131 10/38/132
f 11/39/133 10/38/134 22/37/135 23/40/136
f 24/41/137 12/42/138 11/39/139 23/40/140
